<?xml version="1.0" encoding="UTF-8" standalone="no"?>
<!-- Created with Inkscape (http://www.inkscape.org/) -->

<svg
   xmlns:dc="http://purl.org/dc/elements/1.1/"
   xmlns:cc="http://creativecommons.org/ns#"
   xmlns:rdf="http://www.w3.org/1999/02/22-rdf-syntax-ns#"
   xmlns:svg="http://www.w3.org/2000/svg"
   xmlns="http://www.w3.org/2000/svg"
   xmlns:sodipodi="http://sodipodi.sourceforge.net/DTD/sodipodi-0.dtd"
   xmlns:inkscape="http://www.inkscape.org/namespaces/inkscape"
   width="744.09448819"
   height="1052.3622047"
   id="svg3266"
   version="1.1"
   inkscape:version="0.48+devel r9730"
   sodipodi:docname="candle.svg"
   inkscape:export-filename="/Users/chaimleib/Desktop/candle.png"
   inkscape:export-xdpi="40"
   inkscape:export-ydpi="40">
  <defs
     id="defs3268">
    <filter
       inkscape:collect="always"
       id="filter3909"
       x="-0.66610169"
       width="2.3322034"
       y="-0.66610169"
       height="2.3322034">
      <feGaussianBlur
         inkscape:collect="always"
         stdDeviation="21.868091"
         id="feGaussianBlur3911" />
    </filter>
  </defs>
  <sodipodi:namedview
     id="base"
     pagecolor="#ffffff"
     bordercolor="#666666"
     borderopacity="1.0"
     inkscape:pageopacity="0.0"
     inkscape:pageshadow="2"
     inkscape:zoom="0.49497475"
     inkscape:cx="11.895705"
     inkscape:cy="379.35862"
     inkscape:document-units="px"
     inkscape:current-layer="layer1"
     showgrid="false"
     inkscape:window-width="1588"
     inkscape:window-height="992"
     inkscape:window-x="24"
     inkscape:window-y="20"
     inkscape:window-maximized="0" />
  <metadata
     id="metadata3271">
    <rdf:RDF>
      <cc:Work
         rdf:about="">
        <dc:format>image/svg+xml</dc:format>
        <dc:type
           rdf:resource="http://purl.org/dc/dcmitype/StillImage" />
        <dc:title />
      </cc:Work>
    </rdf:RDF>
  </metadata>
  <g
     inkscape:groupmode="layer"
     id="layer2"
     inkscape:label="Black"
     style="display:none">
    <rect
       style="fill:#000000;fill-opacity:1;stroke:none"
       id="rect3863"
       width="747.51288"
       height="1052.579"
       x="0"
       y="1.803543" />
  </g>
  <g
     inkscape:label="Layer 1"
     inkscape:groupmode="layer"
     id="layer1">
    <path
       style="fill:#e0e0e0;fill-opacity:1"
       d="m 367.50555,965.59293 c -0.60122,-0.77816 -1.19734,-2.28369 -1.32471,-3.3456 -0.12738,-1.06194 -0.51674,-2.42453 -0.86525,-3.02798 -0.34851,-0.60347 -0.45655,-2.34393 -0.24007,-3.8677 0.3524,-2.48051 0.006,-5.73979 -1.29681,-12.21306 -0.75648,-3.75784 -0.73707,-9.96601 0.0348,-11.12259 0.41384,-0.6201 0.36323,-1.3872 -0.11246,-1.70465 -1.12988,-0.75403 -1.68447,-6.86801 -2.26791,-25.0018 -0.26262,-8.16288 -0.60323,-17.18026 -0.7569,-20.03862 -0.15367,-2.85838 -0.39218,-9.70373 -0.53004,-15.21189 -0.13784,-5.50817 -0.35523,-12.26987 -0.48308,-15.02601 -0.12785,-2.75614 -0.34018,-9.74281 -0.47184,-15.52593 -0.13166,-5.78312 -0.34444,-12.31953 -0.47285,-14.52535 -0.22896,-3.93304 -0.4253,-14.59844 -0.69121,-37.547 -0.0734,-6.33141 -0.2438,-14.4423 -0.37874,-18.02419 -0.13495,-3.58189 -0.37026,-10.08504 -0.52292,-14.45143 -0.15265,-4.36638 -0.44684,-8.23547 -0.65375,-8.59798 -0.20691,-0.3625 -0.5118,-4.45967 -0.67753,-9.10482 -0.16575,-4.64515 -0.62872,-11.60908 -1.02883,-15.4754 -0.40012,-3.86632 -0.97418,-11.54103 -1.2757,-17.05491 -0.30151,-5.51389 -1.16599,-18.15176 -1.92108,-28.08416 -1.70219,-22.39087 -2.08685,-31.57401 -2.53943,-60.62555 -0.31962,-20.5169 -0.37411,-28.19269 -0.34454,-48.5416 0.016,-11.00614 -0.0812,-21.36585 -0.21602,-23.02156 -0.81526,-10.01324 1.26177,-81.55117 2.90221,-99.95961 1.78642,-20.04658 2.58413,-32.92375 6.06144,-97.84806 0.85318,-15.92993 1.80772,-30.30538 2.1212,-31.94544 0.31349,-1.64006 0.91927,-6.79705 1.3462,-11.45999 2.29331,-25.04735 6.27968,-50.37938 8.92621,-56.72304 0.79205,-1.89851 1.28182,-3.94517 1.08838,-4.54811 -0.19344,-0.60296 0.30227,-1.07345 1.10155,-1.04554 1.99909,0.0698 3.40143,10.85133 2.46332,18.93845 -3.44308,29.68123 -5.56304,59.88191 -7.97543,113.6166 -0.97441,21.70422 -2.53698,50.91748 -3.47238,64.91837 -0.9354,14.00087 -2.02268,34.67553 -2.41617,45.94366 -0.72098,20.64597 -1.30874,77.38416 -0.84304,81.37839 0.13799,1.18351 0.19018,12.05574 0.116,24.16052 -0.0742,12.10479 -0.0312,24.48884 0.0956,27.52011 0.12679,3.03127 0.34923,9.79315 0.49431,15.0264 0.47188,17.02109 2.6085,52.9519 5.03833,84.72745 1.30806,17.10608 2.47463,41.01135 2.59237,53.12284 0.11773,12.11148 0.26653,28.10142 0.33066,35.53318 0.10891,12.61982 1.18877,51.32519 1.74648,62.59908 0.33931,6.8589 1.22499,34.18131 1.44504,44.57759 0.94734,44.75852 0.94126,48.65973 -0.0734,47.02609 -0.7445,-1.19872 -0.98244,-0.87884 -1.08815,1.46292 -0.18733,4.14943 -1.5147,5.99362 -2.96389,4.11792 z"
       id="path3301"
       inkscape:connector-curvature="0" />
    <path
       style="fill:#e0e0e0;fill-opacity:1"
       d="m 294.16165,936.65718 c -0.04,-0.82689 -0.14012,-1.84351 -0.22267,-2.25915 -0.0826,-0.41563 -0.41504,-3.4508 -0.73887,-6.74483 -0.32383,-3.29402 -0.68956,-6.68385 -0.81274,-7.53295 -0.12319,-0.8491 -0.45954,-5.15424 -0.74745,-9.56697 -0.28791,-4.41274 -0.57505,-8.2501 -0.63809,-8.52747 -0.0631,-0.27737 -0.29503,-4.56307 -0.51554,-9.5238 -0.38831,-8.7361 -0.21754,-17.12414 1.23164,-60.49386 0.37651,-11.26873 0.64336,-22.7414 0.59293,-25.49484 -0.0505,-2.75344 -0.17292,-10.63752 -0.27219,-17.52017 -0.38339,-26.58006 -0.50289,-32.71928 -0.74067,-38.04903 -0.36155,-8.10433 -0.65506,-23.5891 -0.75914,-40.05089 -0.10811,-17.09939 -0.16869,-20.56688 -0.71721,-41.05004 -0.55771,-20.8271 1.28888,-75.02021 3.16711,-92.94609 2.57821,-24.60655 5.57052,-129.95182 4.6424,-163.43754 -0.19849,-7.16129 -0.32163,-13.9197 -0.27366,-15.01869 0.0786,-1.80061 -0.21268,-7.27564 -1.09337,-20.55069 -0.16468,-2.48226 -0.44281,-6.99471 -0.61805,-10.02767 -0.98249,-17.0036 -3.18941,-43.63289 -4.15834,-50.1757 -0.61443,-4.14896 -2.11115,-14.10727 -3.32605,-22.12955 -1.2149,-8.02229 -2.18493,-17.12989 -2.15562,-20.23911 0.0294,-3.10922 -0.28676,-5.46033 -0.70237,-5.22471 -0.41561,0.23564 -0.6281,-2.63033 -0.4722,-6.3688 0.15587,-3.73848 0.15874,-11.52948 0.006,-17.31332 -0.23114,-8.77032 -0.0626,-10.29362 1.01504,-9.176 1.19931,1.24378 2.88476,9.28772 6.69635,31.959 0.83764,4.98227 2.33507,13.36463 3.3276,18.62748 5.6026,29.70746 8.35126,52.99557 10.43582,88.41806 0.14603,2.48161 0.57098,9.02543 0.94433,14.54182 2.12853,31.45037 -0.46923,151.44441 -4.16685,192.47183 -2.18518,24.246 -3.23656,60.88715 -2.45239,85.46648 0.24609,7.71328 0.54597,18.53034 0.66639,24.0379 0.12044,5.50755 0.31646,12.94392 0.43563,16.52527 0.26548,7.9787 0.51943,20.37275 0.7694,37.54973 0.10416,7.15798 0.30699,13.80116 0.45072,14.7626 1.29502,8.66243 0.51529,47.64742 -2.06514,103.25294 -0.58645,12.63723 -0.72429,27.04119 -0.3063,32.00881 1.17276,13.93805 0.28107,33.04407 -1.62513,34.82163 -0.8533,0.79571 -1.59182,2.60319 -1.64118,4.0166 -0.0964,2.75835 -3.03066,3.65125 -3.16048,0.96172 z"
       id="path3299"
       inkscape:connector-curvature="0" />
    <path
       style="fill:#e0e0e0;fill-opacity:1"
       d="m 322.18239,252.44438 c -2.45707,-0.55659 -6.70667,-1.35841 -9.44357,-1.78181 l -4.97616,-0.76983 6.04378,-1.14879 c 17.33267,-3.29457 30.67257,-4.40955 30.60792,-2.55831 -0.0524,1.49964 -5.69323,6.10975 -7.40273,6.05006 -0.9965,-0.0348 -1.8249,0.3115 -1.8409,0.76955 -0.037,1.06184 -7.18803,0.75303 -12.98834,-0.56087 z"
       id="path3295"
       inkscape:connector-curvature="0" />
    <path
       style="fill:#e0e0e0;fill-opacity:1"
       d="m 361.81319,233.69919 c -0.37011,-0.37011 -3.06698,-0.65584 -5.99306,-0.63497 l -5.32013,0.038 2.7551,-1.67614 c 5.83515,-3.54997 0.83106,-5.05796 -17.08661,-5.14909 -9.16663,-0.0466 -13.65628,0.49503 -23.5,2.83515 -15.12408,3.59541 -19.92933,4.33829 -19.07022,2.94822 0.40041,-0.64788 -0.15827,-0.61166 -1.48048,0.096 -1.62174,0.86793 -2.44223,0.83882 -3.47208,-0.1232 -1.12219,-1.04828 -0.99583,-1.53594 0.75289,-2.90564 3.2825,-2.57104 14.40074,-7.48509 22.1014,-9.76839 l 7,-2.07556 -0.002,-9.78208 c -10e-4,-5.38015 0.2237,-13.7631 0.5,-18.62878 0.27634,-4.86574 0.1649,-9.0548 -0.2476,-9.30908 -1.22856,-0.75734 -0.85113,-2.3443 0.55755,-2.3443 1.91062,0 4.69245,7.01675 4.69245,11.83602 0,2.30246 0.48048,4.16398 1.07478,4.16398 1.39223,0 0.73522,8.73734 -0.87861,11.68426 -0.65789,1.20134 -1.19617,3.08728 -1.19617,4.19098 0,1.1037 -0.45,2.28484 -1,2.62476 -0.55,0.33992 -1,1.61988 -1,2.84436 0,2.17554 0.22243,2.21766 9.75,1.84616 14.49949,-0.56536 27.23622,1.14656 34.77401,4.67392 3.67066,1.71771 6.5378,3.75496 6.90273,4.90474 0.81244,2.55978 -0.98146,7.23082 -2.77699,7.23082 -0.76986,0 -2.69662,0.25937 -4.28169,0.57639 -1.58507,0.31701 -3.18476,0.27357 -3.55487,-0.0965 z"
       id="path3291" />
    <path
       style="fill:#f4cb69;fill-opacity:1"
       d="m 334.41105,184.13109 c 0.24212,-1.87647 1.79703,-6.43181 3.45536,-10.12297 1.65832,-3.69117 2.98316,-7.51617 2.94407,-8.5 -0.0391,-0.98384 0.21981,-3.13879 0.57533,-4.78879 1.27994,-5.9403 0.71217,-23.35517 -0.94759,-29.06452 -0.89279,-3.07108 -1.42872,-5.77832 -1.19095,-6.01608 0.23776,-0.23777 0.99914,1.45969 1.69197,3.77212 1.06432,3.5524 1.41329,3.92993 2.25023,2.4344 0.70148,-1.25348 0.54711,-2.68561 -0.52898,-4.9075 -0.83574,-1.72562 -1.24386,-3.58353 -0.90693,-4.1287 0.3538,-0.57245 0.8144,-0.38585 1.09024,0.44167 0.26269,0.78809 1.04786,2.00312 1.74481,2.70008 1.67898,1.67897 5.29044,11.43974 6.56187,17.73489 1.33146,6.59237 1.24101,18.34345 -0.18275,23.74123 -1.59623,6.05169 -5.08415,12.79241 -6.6193,12.79241 -0.71339,0 -1.98043,1.32146 -2.81564,2.93659 -2.00748,3.88203 -3.86151,5.05821 -2.55452,1.62056 1.24017,-3.26189 0.55315,-3.2336 -2.5406,0.10461 l -2.46684,2.66176 0.44022,-3.41176 z"
       id="path3289" />
    <path
       style="fill:#f4cb69;fill-opacity:1"
       d="m 305.09075,107.26763 c 2.79291,-5.78065 2.34861,-6.53711 -1.50738,-2.5665 -3.42702,3.5289 -6.28329,5.05407 -3.30796,1.76637 2.55316,-2.82121 3.55536,-6.497862 4.19552,-15.391561 1.47955,-20.555541 4.46771,-41.971115 4.26997,-30.602144 -0.0806,4.634493 0.9002,5.825725 2.17423,2.640715 0.88378,-2.20939 0.96301,-2.117226 1.02148,1.188149 0.0349,1.970834 0.38519,3.905137 0.77851,4.298452 3.88012,3.88012 4.18733,30.533249 0.39262,34.063779 -0.88426,0.8227 -3.28024,3.08401 -5.32441,5.02513 -2.04416,1.94112 -3.91583,3.52931 -4.15925,3.52931 -0.24342,0 0.41658,-1.77827 1.46667,-3.9517 z"
       id="path3285" />
    <path
       sodipodi:type="arc"
       style="fill:#fff9a0;fill-opacity:1;stroke:none;opacity:1;filter:url(#filter3909)"
       id="path3072"
       sodipodi:cx="300.01529"
       sodipodi:cy="170.49902"
       sodipodi:rx="39.39595"
       sodipodi:ry="39.39595"
       d="m 339.41124,170.49902 a 39.39595,39.39595 0 1 1 -78.7919,0 39.39595,39.39595 0 1 1 78.7919,0 z"
       transform="translate(24.24366,-26.263966)" />
  </g>
</svg>
