<?xml version="1.0" encoding="UTF-8" standalone="no"?>
<!-- Created with Inkscape (http://www.inkscape.org/) -->

<svg
   xmlns:osb="http://www.openswatchbook.org/uri/2009/osb"
   xmlns:dc="http://purl.org/dc/elements/1.1/"
   xmlns:cc="http://creativecommons.org/ns#"
   xmlns:rdf="http://www.w3.org/1999/02/22-rdf-syntax-ns#"
   xmlns:svg="http://www.w3.org/2000/svg"
   xmlns="http://www.w3.org/2000/svg"
   xmlns:xlink="http://www.w3.org/1999/xlink"
   xmlns:sodipodi="http://sodipodi.sourceforge.net/DTD/sodipodi-0.dtd"
   xmlns:inkscape="http://www.inkscape.org/namespaces/inkscape"
   width="1024"
   height="1024"
   id="svg3999"
   version="1.1"
   inkscape:version="0.48+devel r9730"
   sodipodi:docname="icon.svg"
   inkscape:export-filename="/Users/chaimleib/Documents/Programming/yesoidos/trunk/devteam/Images/icon-16.png"
   inkscape:export-xdpi="1.41"
   inkscape:export-ydpi="1.41">
  <defs
     id="defs4001">
    <linearGradient
       id="linearGradient6650">
      <stop
         style="stop-color:#000000;stop-opacity:0.77952754;"
         offset="0"
         id="stop6652" />
      <stop
         style="stop-color:#000000;stop-opacity:0;"
         offset="1"
         id="stop6654" />
    </linearGradient>
    <linearGradient
       id="linearGradient6547">
      <stop
         style="stop-color:#e3b26d;stop-opacity:1;"
         offset="0"
         id="stop6549" />
      <stop
         style="stop-color:#fff656;stop-opacity:1;"
         offset="1"
         id="stop6551" />
    </linearGradient>
    <linearGradient
       id="linearGradient6403">
      <stop
         style="stop-color:#ffcc00;stop-opacity:1;"
         offset="0"
         id="stop6405" />
      <stop
         style="stop-color:#ffdb4c;stop-opacity:1;"
         offset="1"
         id="stop6407" />
    </linearGradient>
    <linearGradient
       id="linearGradient6301">
      <stop
         style="stop-color:#fff27e;stop-opacity:1;"
         offset="0"
         id="stop6303" />
      <stop
         id="stop6309"
         offset="0.5"
         style="stop-color:#ffffff;stop-opacity:1;" />
      <stop
         style="stop-color:#ffffff;stop-opacity:0;"
         offset="1"
         id="stop6305" />
    </linearGradient>
    <linearGradient
       id="linearGradient6247">
      <stop
         style="stop-color:#9f0000;stop-opacity:1;"
         offset="0"
         id="stop6249" />
      <stop
         style="stop-color:#550000;stop-opacity:1;"
         offset="1"
         id="stop6251" />
    </linearGradient>
    <linearGradient
       id="linearGradient4517"
       osb:paint="solid">
      <stop
         style="stop-color:#000000;stop-opacity:1;"
         offset="0"
         id="stop4519" />
    </linearGradient>
    <filter
       id="filter6189"
       inkscape:menu-tooltip="3D warped, fibered wood texture"
       inkscape:menu="Materials"
       inkscape:label="3D wood"
       height="1.5"
       y="-0.25"
       width="1.5"
       x="-0.25"
       color-interpolation-filters="sRGB">
      <feGaussianBlur
         id="feGaussianBlur6191"
         result="result8"
         stdDeviation="4" />
      <feTurbulence
         id="feTurbulence6193"
         baseFrequency="0.025 0.2"
         numOctaves="3"
         type="fractalNoise"
         result="result7"
         seed="22" />
      <feComposite
         id="feComposite6195"
         in2="result8"
         operator="in"
         in="SourceGraphic"
         result="result6" />
      <feDisplacementMap
         id="feDisplacementMap6197"
         in2="result6"
         result="result4"
         scale="50"
         yChannelSelector="A"
         xChannelSelector="A"
         in="result7" />
      <feFlood
         id="feFlood6199"
         flood-color="rgb(230,211,138)"
         flood-opacity="1"
         in="result4"
         result="result9" />
      <feComposite
         id="feComposite6201"
         in2="result4"
         operator="atop"
         result="result2" />
      <feComposite
         id="feComposite6203"
         in2="SourceGraphic"
         operator="atop"
         in="result2"
         result="result9" />
      <feGaussianBlur
         id="feGaussianBlur6205"
         result="result0"
         in="result9"
         stdDeviation="8" />
      <feSpecularLighting
         id="feSpecularLighting6207"
         specularExponent="15"
         specularConstant="0.7"
         surfaceScale="5"
         lighting-color="rgb(255,255,255)"
         result="result1"
         in="result0">
        <feDistantLight
           id="feDistantLight6209"
           azimuth="235"
           elevation="50" />
      </feSpecularLighting>
      <feComposite
         id="feComposite6211"
         in2="result9"
         operator="in"
         result="result2"
         in="result1" />
      <feComposite
         id="feComposite6213"
         in2="result2"
         k3="0.5"
         k2="0.5"
         operator="arithmetic"
         result="result4"
         in="result9" />
      <feConvolveMatrix
         id="feConvolveMatrix6215"
         order="3 3"
         kernelMatrix="2 0 0 0 2 0 0 0 -2 "
         targetX="2"
         targetY="2"
         result="result10" />
      <feBlend
         id="feBlend6217"
         in2="result10"
         mode="multiply"
         in="result10" />
    </filter>
    <radialGradient
       inkscape:collect="always"
       xlink:href="#linearGradient6247"
       id="radialGradient6253"
       cx="419.73605"
       cy="552.28424"
       fx="419.73605"
       fy="552.28424"
       r="413.23859"
       gradientUnits="userSpaceOnUse" />
    <filter
       inkscape:collect="always"
       id="filter6297"
       x="-0.2128152"
       width="1.4256304"
       y="-0.18564732"
       height="1.3712946">
      <feGaussianBlur
         inkscape:collect="always"
         stdDeviation="4.7244257"
         id="feGaussianBlur6299" />
    </filter>
    <radialGradient
       inkscape:collect="always"
       xlink:href="#linearGradient6301"
       id="radialGradient6307"
       cx="762.38031"
       cy="316.63538"
       fx="762.38031"
       fy="316.63538"
       r="37.978217"
       gradientTransform="matrix(0.65783186,0,-3.2559382e-8,0.62361483,241.14188,125.46532)"
       gradientUnits="userSpaceOnUse" />
    <filter
       inkscape:collect="always"
       id="filter6331">
      <feGaussianBlur
         inkscape:collect="always"
         stdDeviation="6.1816406"
         id="feGaussianBlur6333" />
    </filter>
    <filter
       inkscape:collect="always"
       id="filter6355">
      <feGaussianBlur
         inkscape:collect="always"
         stdDeviation="8.3328919"
         id="feGaussianBlur6357" />
    </filter>
    <linearGradient
       inkscape:collect="always"
       xlink:href="#linearGradient6403"
       id="linearGradient6409"
       x1="565.73877"
       y1="463.69211"
       x2="410.17999"
       y2="631.32666"
       gradientUnits="userSpaceOnUse"
       gradientTransform="translate(0,-48.362179)" />
    <filter
       inkscape:collect="always"
       id="filter6496"
       x="-0.39642068"
       width="1.7928414"
       y="-0.47263624"
       height="1.9452725">
      <feGaussianBlur
         inkscape:collect="always"
         stdDeviation="58.839264"
         id="feGaussianBlur6498" />
    </filter>
    <filter
       inkscape:collect="always"
       id="filter6500"
       x="-0.36416042"
       width="1.7283208"
       y="-0.25506143"
       height="1.5101229">
      <feGaussianBlur
         inkscape:collect="always"
         stdDeviation="63.671039"
         id="feGaussianBlur6502" />
    </filter>
    <linearGradient
       inkscape:collect="always"
       xlink:href="#linearGradient6547"
       id="linearGradient6553"
       x1="452.68039"
       y1="740.79022"
       x2="534.44159"
       y2="279.47043"
       gradientUnits="userSpaceOnUse"
       gradientTransform="translate(0,-48.362179)" />
    <filter
       inkscape:collect="always"
       id="filter6604">
      <feGaussianBlur
         inkscape:collect="always"
         stdDeviation="13.48875"
         id="feGaussianBlur6606" />
    </filter>
    <radialGradient
       inkscape:collect="always"
       xlink:href="#linearGradient6247"
       id="radialGradient6608"
       gradientUnits="userSpaceOnUse"
       cx="419.73605"
       cy="552.28424"
       fx="419.73605"
       fy="552.28424"
       r="413.23859" />
    <filter
       inkscape:collect="always"
       id="filter6646"
       x="-0.035471234"
       width="1.0709425"
       y="-0.34848931"
       height="1.6969786">
      <feGaussianBlur
         inkscape:collect="always"
         stdDeviation="10.755407"
         id="feGaussianBlur6648" />
    </filter>
    <linearGradient
       inkscape:collect="always"
       xlink:href="#linearGradient6650"
       id="linearGradient6656"
       x1="508.27838"
       y1="983.10449"
       x2="508.27838"
       y2="919.1687"
       gradientUnits="userSpaceOnUse" />
    <radialGradient
       inkscape:collect="always"
       xlink:href="#linearGradient6301"
       id="radialGradient6671"
       gradientUnits="userSpaceOnUse"
       gradientTransform="matrix(0.65783186,0,-3.2559382e-8,0.62361483,241.14188,125.46532)"
       cx="762.38031"
       cy="316.63538"
       fx="762.38031"
       fy="316.63538"
       r="37.978217" />
  </defs>
  <sodipodi:namedview
     id="base"
     pagecolor="#ffffff"
     bordercolor="#666666"
     borderopacity="1.0"
     inkscape:pageopacity="0.0"
     inkscape:pageshadow="2"
     inkscape:zoom="0.83886719"
     inkscape:cx="367.75786"
     inkscape:cy="518.30042"
     inkscape:document-units="px"
     inkscape:current-layer="layer4"
     showgrid="false"
     inkscape:window-width="1676"
     inkscape:window-height="1006"
     inkscape:window-x="4"
     inkscape:window-y="0"
     inkscape:window-maximized="1" />
  <metadata
     id="metadata4004">
    <rdf:RDF>
      <cc:Work
         rdf:about="">
        <dc:format>image/svg+xml</dc:format>
        <dc:type
           rdf:resource="http://purl.org/dc/dcmitype/StillImage" />
        <dc:title />
      </cc:Work>
    </rdf:RDF>
  </metadata>
  <g
     inkscape:groupmode="layer"
     id="layer6"
     inkscape:label="Base shadow"
     style="display:inline">
    <path
       style="fill:#000000;fill-opacity:1;stroke:none;display:inline;filter:url(#filter6604)"
       d="m 513.3125,43.687504 c -248.32068,0 -449.625,201.304316 -449.625,449.624996 0,248.32068 201.30432,449.625 449.625,449.625 248.32068,0 449.625,-201.30432 449.625,-449.625 0,-248.32068 -201.30432,-449.624996 -449.625,-449.624996 z"
       id="path6574"
       inkscape:connector-curvature="0" />
    <path
       style="fill:url(#linearGradient6656);fill-opacity:1;stroke:none;filter:url(#filter6646)"
       d="m 875.85787,933.27917 c 0,20.45417 -162.90471,37.03554 -363.85787,37.03554 -200.95315,0 -363.85788,-16.58137 -363.85788,-37.03554 0,-20.45416 162.90473,-37.03553 363.85788,-37.03553 200.95316,0 363.85787,16.58137 363.85787,37.03553 z"
       id="path6593"
       inkscape:connector-curvature="0"
       transform="matrix(1,0,0,2.2334671,5e-6,-1205.0813)" />
  </g>
  <g
     inkscape:label="Base"
     inkscape:groupmode="layer"
     id="layer1"
     transform="translate(0,-28.362183)"
     style="display:inline">
    <path
       transform="translate(93.563452,-30.622585)"
       d="m 832.97464,552.28424 c 0,228.22537 -185.01322,413.23859 -413.23859,413.23859 -228.22537,0 -413.238583,-185.01322 -413.238583,-413.23859 0,-228.22537 185.013213,-413.23859 413.238583,-413.23859 228.22537,0 413.23859,185.01322 413.23859,413.23859 z"
       sodipodi:ry="413.23859"
       sodipodi:rx="413.23859"
       sodipodi:cy="552.28424"
       sodipodi:cx="419.73605"
       id="path6219"
       style="fill:url(#radialGradient6608);fill-opacity:1;stroke:none"
       sodipodi:type="arc" />
    <path
       style="fill:#aa4400;fill-opacity:1;stroke:none;filter:url(#filter6189)"
       d="m 513.3125,72.049687 c -248.32068,0 -449.625,201.304313 -449.625,449.624993 0,248.32068 201.30432,449.625 449.625,449.625 248.32068,0 449.625,-201.30432 449.625,-449.625 0,-248.32068 -201.30432,-449.624993 -449.625,-449.624993 z m 0,36.374993 c 228.22537,0 413.21875,185.02463 413.21875,413.25 0,228.22537 -184.99338,413.21875 -413.21875,413.21875 -228.22537,0 -413.25,-184.99338 -413.25,-413.21875 0,-228.22537 185.02463,-413.25 413.25,-413.25 z"
       id="path4007"
       inkscape:connector-curvature="0" />
  </g>
  <g
     inkscape:groupmode="layer"
     id="layer2"
     inkscape:label="Glow"
     style="display:inline">
    <path
       sodipodi:nodetypes="sssssss"
       inkscape:connector-curvature="0"
       id="path6411"
       d="m 302.09934,365.17207 c -1.45163,-30.15142 6.84782,-211.01021 36.64882,-142.91896 45.64955,104.30304 336.21154,-16.68324 367.49724,167.12137 39.4356,231.6856 -4.75458,384.94454 -48.01862,414.39841 -29.90534,20.35935 3.79016,-94.19906 -16.40754,-171.60255 -11.55057,-44.26519 -52.66966,-56.25947 -92.52167,-57.36618 -159.86727,-4.43959 -236.79708,6.40736 -247.19823,-209.63209 z"
       style="fill:#f6fab9;fill-opacity:1;stroke:none;display:inline;filter:url(#filter6500)" />
  </g>
  <g
     inkscape:groupmode="layer"
     id="layer3"
     inkscape:label="Yud"
     style="display:inline">
    <path
       style="fill:url(#linearGradient6409);fill-opacity:1;stroke:url(#linearGradient6553);stroke-width:13;stroke-miterlimit:4;stroke-opacity:1;stroke-dasharray:none;display:inline"
       d="m 302.09934,365.17207 c -1.45163,-30.15142 6.84782,-211.01021 36.64882,-142.91896 45.64955,104.30304 336.21154,-16.68324 367.49724,167.12137 39.4356,231.6856 -4.75458,384.94454 -48.01862,414.39841 -29.90534,20.35935 3.79016,-94.19906 -16.40754,-171.60255 -11.55057,-44.26519 -52.66966,-56.25947 -92.52167,-57.36618 -159.86727,-4.43959 -236.79708,6.40736 -247.19823,-209.63209 z"
       id="path6359"
       inkscape:connector-curvature="0"
       sodipodi:nodetypes="sssssss" />
  </g>
  <g
     inkscape:groupmode="layer"
     id="layer5"
     inkscape:label="Inner Yud Glow"
     style="display:inline">
    <path
       transform="translate(0,-48.362179)"
       sodipodi:type="inkscape:offset"
       inkscape:radius="26.151779"
       inkscape:original="M 361.53125 360.8125 C 360.08908 385.54802 359.65877 408.20608 359.78125 410.75 C 362.21588 461.31909 368.845 495.8212 376.625 516.3125 C 384.405 536.8038 390.74376 542.85765 399.84375 548.4375 C 418.04372 559.59719 469.40962 563.14305 550.90625 565.40625 C 576.07462 566.10519 604.4551 569.68005 632.8125 584.40625 C 643.58738 590.00172 654.10913 597.77183 663.59375 607.28125 C 663.48229 560.45233 659.4435 506.95751 649.3125 447.4375 C 644.14908 417.10221 635.90684 410.25637 616.28125 400.46875 C 596.65566 390.68113 562.63419 384.71992 523.84375 382 C 485.05331 379.28008 442.54465 379.34072 400.71875 371.75 C 388.12967 369.46529 374.7413 365.82517 361.53125 360.8125 z "
       style="fill:#ffff00;fill-opacity:1;stroke:none;display:inline;filter:url(#filter6496)"
       id="path6448"
       d="m 360.5625,334.6875 a 26.154394,26.154394 0 0 0 -25.125,24.59375 c -0.73929,12.68008 -1.22099,24.7414 -1.5,34.03125 -0.27901,9.28985 -0.59259,12.22088 -0.28125,18.6875 2.51681,52.27596 9.04337,88.60417 18.53125,113.59375 8.84644,23.30013 22.32765,37.96785 34,45.125 17.39423,10.66563 36.21031,12.86657 62.8125,15.5625 26.60219,2.69593 60.21275,4.14336 101.1875,5.28125 23.2402,0.64539 47.00239,3.82757 70.5625,16.0625 8.16673,4.24104 16.62697,10.41938 24.3125,18.125 A 26.154394,26.154394 0 0 0 689.75,607.21875 c -0.11493,-48.28516 -4.28323,-103.21436 -14.65625,-164.15625 -2.91335,-17.11603 -7.21412,-31.10026 -16.125,-42.71875 -8.91088,-11.61849 -20.34776,-17.95321 -31.03125,-23.28125 -26.63232,-13.282 -61.86424,-18.32447 -102.25,-21.15625 -40.14733,-2.81506 -81.57384,-2.84456 -120.3125,-9.875 -10.9924,-1.99494 -22.90591,-5.23305 -34.5625,-9.65625 a 26.154394,26.154394 0 0 0 -10.25,-1.6875 z" />
  </g>
  <g
     inkscape:groupmode="layer"
     id="layer4"
     inkscape:label="Highlights"
     style="display:inline">
    <path
       style="opacity:0.28879311;fill:#ffffff;fill-opacity:1;stroke:none"
       d="m 303.27085,137.4164 c -104.4769,61.66272 -171.87725,162.14297 -194.66399,272.26785 104.9354,51.40759 246.80792,99.15975 412.82447,99.94989 191.51158,0.91147 319.78693,-47.25953 398.09742,-92.78675 -8.6309,-45.88229 -25.25011,-91.04532 -50.35067,-133.5739 C 753.17583,86.727588 499.81675,21.414144 303.27085,137.4164 z"
       id="path6335"
       inkscape:connector-curvature="0" />
    <path
       style="opacity:0.43965532;fill:#ffffff;fill-opacity:1;stroke:none;display:inline;filter:url(#filter6331)"
       d="m 513.3125,122.9375 c -10.23378,0 -20.38388,0.42433 -30.40625,1.25 218.76114,15.33362 391.81912,199.32485 394,424.8125 2.72249,-18.17231 4.15625,-36.75041 4.15625,-55.6875 0,-204.54161 -164.64377,-370.375 -367.75,-370.375 z"
       id="path6255"
       inkscape:connector-curvature="0"
       transform="matrix(0.70710678,-0.70710678,0.70710678,0.70710678,-198.47346,507.44163)" />
    <path
       style="opacity:0.28448277;fill:#000000;fill-opacity:1;stroke:none;display:inline;filter:url(#filter6355)"
       d="m 163.25,372.03125 c -13.16138,37.99537 -20.3125,78.80824 -20.3125,121.28125 0,204.54161 165.83339,370.34375 370.375,370.34375 42.47905,0 83.28127,-7.14754 121.28125,-20.3125 -19.99897,2.96366 -40.45805,4.5 -61.28125,4.5 -228.94307,0 -414.5625,-185.58818 -414.5625,-414.53125 0,-20.81259 1.5393,-41.292 4.5,-61.28125 z"
       id="path6346"
       inkscape:connector-curvature="0"
       transform="matrix(0.70710678,-0.70710678,0.70710678,0.70710678,-198.47346,507.44163)" />
  </g>
  <g
     inkscape:groupmode="layer"
     id="layer7"
     inkscape:label="Glare"
     style="display:none">
    <path
       transform="matrix(1.3240772,-1.3240772,1.2227558,1.2227558,-845.42483,812.52707)"
       style="opacity:0.72413791;fill:url(#radialGradient6671);fill-opacity:1;stroke:none;display:inline;filter:url(#filter6297)"
       d="m 760.20307,328.12183 c 0,16.86571 -11.92695,30.53807 -26.63959,30.53807 -14.71264,0 -26.6396,-13.67236 -26.6396,-30.53807 0,-16.86571 11.92696,-30.53807 26.6396,-30.53807 14.71264,0 26.63959,13.67236 26.63959,30.53807 z"
       id="path6274"
       inkscape:connector-curvature="0" />
  </g>
</svg>
