<?xml version="1.0" encoding="UTF-8" standalone="no"?>
<!-- Created with Inkscape (http://www.inkscape.org/) -->

<svg
   xmlns:dc="http://purl.org/dc/elements/1.1/"
   xmlns:cc="http://creativecommons.org/ns#"
   xmlns:rdf="http://www.w3.org/1999/02/22-rdf-syntax-ns#"
   xmlns:svg="http://www.w3.org/2000/svg"
   xmlns="http://www.w3.org/2000/svg"
   xmlns:xlink="http://www.w3.org/1999/xlink"
   xmlns:sodipodi="http://sodipodi.sourceforge.net/DTD/sodipodi-0.dtd"
   xmlns:inkscape="http://www.inkscape.org/namespaces/inkscape"
   width="350"
   height="650"
   id="svg4164"
   version="1.1"
   inkscape:version="0.48+devel r9730"
   sodipodi:docname="michoel.small.svg"
   inkscape:export-filename="/Users/chaimleib/Documents/Programming/yesoidos/trunk/Yesoidos/game/michoel.small.png"
   inkscape:export-xdpi="90"
   inkscape:export-ydpi="90">
  <defs
     id="defs4166">
    <linearGradient
       id="linearGradient4107">
      <stop
         id="stop4109"
         offset="0"
         style="stop-color:#fffd00;stop-opacity:1;" />
      <stop
         style="stop-color:#ffcb28;stop-opacity:1;"
         offset="0.32489672"
         id="stop4111" />
      <stop
         id="stop4113"
         offset="1"
         style="stop-color:#2cb4ff;stop-opacity:1;" />
    </linearGradient>
    <linearGradient
       id="linearGradient4832">
      <stop
         style="stop-color:#fffd00;stop-opacity:1;"
         offset="0"
         id="stop4834" />
      <stop
         id="stop4864"
         offset="0.32489672"
         style="stop-color:#ffcb28;stop-opacity:1;" />
      <stop
         style="stop-color:#c893a3;stop-opacity:1;"
         offset="0.6934666"
         id="stop5414" />
      <stop
         style="stop-color:#5ec6ff;stop-opacity:1;"
         offset="1"
         id="stop4836" />
    </linearGradient>
    <linearGradient
       id="linearGradient4729">
      <stop
         id="stop4731"
         offset="0"
         style="stop-color:#94faff;stop-opacity:1;" />
      <stop
         style="stop-color:#692785;stop-opacity:1;"
         offset="0.16188201"
         id="stop4733" />
      <stop
         id="stop4735"
         offset="0.64201009"
         style="stop-color:#761328;stop-opacity:1;" />
      <stop
         id="stop4737"
         offset="1"
         style="stop-color:#000000;stop-opacity:1;" />
    </linearGradient>
    <linearGradient
       id="linearGradient4682">
      <stop
         style="stop-color:#94faff;stop-opacity:1;"
         offset="0"
         id="stop4684" />
      <stop
         id="stop4690"
         offset="0.11952271"
         style="stop-color:#692785;stop-opacity:1;" />
      <stop
         style="stop-color:#761328;stop-opacity:1;"
         offset="0.36377358"
         id="stop4692" />
      <stop
         style="stop-color:#000000;stop-opacity:1;"
         offset="1"
         id="stop4686" />
    </linearGradient>
    <radialGradient
       inkscape:collect="always"
       xlink:href="#linearGradient4729"
       id="radialGradient4727"
       gradientUnits="userSpaceOnUse"
       gradientTransform="matrix(0.71599557,0.00290244,-0.02535648,0.87195925,59.922866,48.747901)"
       cx="176.64362"
       cy="384.72614"
       fx="176.64362"
       fy="384.72614"
       r="315.42287" />
    <radialGradient
       inkscape:collect="always"
       xlink:href="#linearGradient4832"
       id="radialGradient4838"
       cx="175"
       cy="743.33728"
       fx="175"
       fy="743.33728"
       r="85"
       gradientTransform="matrix(1,0,0,2.5347423,-5.839652e-7,-1125.009)"
       gradientUnits="userSpaceOnUse" />
    <filter
       inkscape:collect="always"
       id="filter4103"
       x="-0.26548941"
       width="1.5309788"
       y="-0.088468869"
       height="1.1769377">
      <feGaussianBlur
         inkscape:collect="always"
         stdDeviation="18.8055"
         id="feGaussianBlur4105" />
    </filter>
    <radialGradient
       inkscape:collect="always"
       xlink:href="#linearGradient4107"
       id="radialGradient4115"
       gradientUnits="userSpaceOnUse"
       gradientTransform="matrix(1,0,0,2.5347423,-5.839652e-7,-1125.009)"
       cx="175"
       cy="749.33502"
       fx="175"
       fy="749.33502"
       r="85" />
    <filter
       inkscape:collect="always"
       id="filter4162"
       x="-0.27490434"
       width="1.5498087"
       y="-0.12608753"
       height="1.2521751">
      <feGaussianBlur
         inkscape:collect="always"
         stdDeviation="6.6363627"
         id="feGaussianBlur4164" />
    </filter>
    <filter
       inkscape:collect="always"
       id="filter4186"
       x="-0.48147295"
       width="1.9629459"
       y="-0.56064102"
       height="2.121282">
      <feGaussianBlur
         inkscape:collect="always"
         stdDeviation="3.7792252"
         id="feGaussianBlur4188" />
    </filter>
    <filter
       inkscape:collect="always"
       id="filter4223">
      <feGaussianBlur
         inkscape:collect="always"
         stdDeviation="0.75063195"
         id="feGaussianBlur4225" />
    </filter>
    <filter
       inkscape:collect="always"
       id="filter5416"
       x="-0.29787842"
       width="1.5957568"
       y="-0.90291262"
       height="2.8058252">
      <feGaussianBlur
         inkscape:collect="always"
         stdDeviation="13.96693"
         id="feGaussianBlur5418" />
    </filter>
  </defs>
  <sodipodi:namedview
     id="base"
     pagecolor="#ffffff"
     bordercolor="#666666"
     borderopacity="1.0"
     inkscape:pageopacity="0.0"
     inkscape:pageshadow="2"
     inkscape:zoom="1.2046154"
     inkscape:cx="-120.53001"
     inkscape:cy="386.70284"
     inkscape:document-units="px"
     inkscape:current-layer="layer3"
     showgrid="true"
     inkscape:window-width="1468"
     inkscape:window-height="1001"
     inkscape:window-x="98"
     inkscape:window-y="46"
     inkscape:window-maximized="0" />
  <metadata
     id="metadata4169">
    <rdf:RDF>
      <cc:Work
         rdf:about="">
        <dc:format>image/svg+xml</dc:format>
        <dc:type
           rdf:resource="http://purl.org/dc/dcmitype/StillImage" />
        <dc:title></dc:title>
      </cc:Work>
    </rdf:RDF>
  </metadata>
  <g
     inkscape:label="Glow"
     inkscape:groupmode="layer"
     id="layer1"
     transform="translate(0,-402.36217)">
    <path
       style="fill:url(#radialGradient4115);fill-opacity:1;stroke:none;filter:url(#filter4103)"
       d="m 175,444.12817 c -5.66667,0 -11.39931,85.74253 -25.84885,117.48154 C 124.14367,616.53967 90,640.5895 90,741.36217 c 0,128.11822 32.82311,134.89567 55.43478,178 17.98118,34.27729 14.78261,105.00003 29.56522,105.56253 l 0,-0.3438 c 14.78261,-0.5625 11.58404,-71.28519 29.56522,-105.56248 C 227.17689,875.91409 260,869.13664 260,741.01842 260,640.18331 225.7058,616.20504 200.68377,560.96299 186.33556,529.28594 180.66667,444.12817 175,444.12817 z"
       id="path4777"
       inkscape:connector-curvature="0"
       sodipodi:nodetypes="ssssccssss"
       transform="matrix(0.69959272,0,0,0.60612458,52.571275,215.14764)" />
  </g>
  <g
     inkscape:groupmode="layer"
     id="layer2"
     inkscape:label="Body"
     style="display:inline">
    <path
       transform="matrix(0.69959272,0,0,0.60612458,52.571275,-187.21453)"
       sodipodi:nodetypes="cssccssc"
       inkscape:connector-curvature="0"
       id="path3308"
       d="m 175,414.70592 c 0,199.65625 -85,167.65625 -85,326.65625 0,128.11822 32.82311,134.89567 55.43478,178 17.98118,34.27729 14.78261,105.00003 29.56522,105.56253 l 0,-0.3438 c 14.78261,-0.5625 11.58404,-71.28519 29.56522,-105.56248 C 227.17689,875.91409 260,869.13664 260,741.01842 260,582.36217 175.09926,613.97725 175,414.70592 z"
       style="fill:url(#radialGradient4838);fill-opacity:1;stroke:none;filter:url(#filter4223)" />
  </g>
  <g
     inkscape:groupmode="layer"
     id="layer3"
     inkscape:label="Highlights">
    <path
       style="fill:#fcff13;fill-opacity:1;stroke:none;filter:url(#filter5416)"
       d="m 234.71875,336.4375 c -13.70032,14.54844 -34.54881,23.84375 -57.90625,23.84375 -21.57102,0 -40.98706,-7.9227 -54.625,-20.59375 10.68373,20.18451 31.51349,33.875 55.46875,33.875 25.21098,0 46.95933,-15.18811 57.0625,-37.125 z"
       id="path4192"
       inkscape:connector-curvature="0"
       transform="matrix(0.65897863,0,0,0.79287174,60.14109,53.43909)" />
    <path
       style="fill:#ffffff;fill-opacity:1;stroke:none;display:inline;filter:url(#filter4162)"
       d="m 174.59375,145.78125 a 15.713374,13.61401 0 0 0 -4.90625,0.8125 c 1.74567,1.29847 3.24043,2.79652 4.375,4.5 2.15448,3.24749 4.18842,6.40135 5.9375,8.90625 25.19414,36.08131 46.00768,45.08393 47.53125,112.09375 0.0534,-2.94695 0.0937,-5.9604 0.0937,-9.125 0,-56.60438 -15.50305,-74.87358 -34.46875,-103.375 -1.26734,-1.90454 -2.75141,-4.3121 -4.3125,-6.78125 a 15.713374,13.61401 0 0 0 -14.25,-7.03125 z"
       id="path4128"
       inkscape:connector-curvature="0"
       transform="matrix(0.79287174,0,0,0.79287174,36.247446,53.43909)" />
    <path
       sodipodi:type="arc"
       style="opacity:0.64655175;fill:#ffffff;fill-opacity:1;stroke:none;filter:url(#filter4186)"
       id="path4168"
       sodipodi:cx="151.08557"
       sodipodi:cy="196.7433"
       sodipodi:rx="8.301405"
       sodipodi:ry="8.301405"
       d="m 159.38698,196.7433 a 8.301405,8.301405 0 1 1 -16.60281,0 8.301405,8.301405 0 1 1 16.60281,0 z"
       transform="matrix(0.39235331,0.47960351,-0.69667539,0.81948527,217.04225,-17.676154)" />
  </g>
</svg>
