<?xml version="1.0" encoding="UTF-8" standalone="no"?>
<!-- Created with Inkscape (http://www.inkscape.org/) -->

<svg
   xmlns:dc="http://purl.org/dc/elements/1.1/"
   xmlns:cc="http://creativecommons.org/ns#"
   xmlns:rdf="http://www.w3.org/1999/02/22-rdf-syntax-ns#"
   xmlns:svg="http://www.w3.org/2000/svg"
   xmlns="http://www.w3.org/2000/svg"
   xmlns:xlink="http://www.w3.org/1999/xlink"
   xmlns:sodipodi="http://sodipodi.sourceforge.net/DTD/sodipodi-0.dtd"
   xmlns:inkscape="http://www.inkscape.org/namespaces/inkscape"
   width="350"
   height="650"
   id="svg4164"
   version="1.1"
   inkscape:version="0.48+devel r9730"
   sodipodi:docname="michoel.inspired.svg"
   inkscape:export-filename="/Users/chaimleib/Documents/Programming/yesoidos/trunk/Yesoidos/game/michoel.inspired.png"
   inkscape:export-xdpi="90"
   inkscape:export-ydpi="90">
  <defs
     id="defs4166">
    <linearGradient
       id="linearGradient4107">
      <stop
         id="stop4109"
         offset="0"
         style="stop-color:#fffd00;stop-opacity:1;" />
      <stop
         style="stop-color:#ffcb28;stop-opacity:1;"
         offset="0.32489672"
         id="stop4111" />
      <stop
         id="stop4113"
         offset="1"
         style="stop-color:#2cb4ff;stop-opacity:1;" />
    </linearGradient>
    <linearGradient
       id="linearGradient4832">
      <stop
         style="stop-color:#ffee58;stop-opacity:1;"
         offset="0"
         id="stop4834" />
      <stop
         id="stop4864"
         offset="0.2972973"
         style="stop-color:#dff9fb;stop-opacity:1;" />
      <stop
         style="stop-color:#83d3ff;stop-opacity:1;"
         offset="1"
         id="stop4836" />
    </linearGradient>
    <linearGradient
       id="linearGradient4729">
      <stop
         id="stop4731"
         offset="0"
         style="stop-color:#94faff;stop-opacity:1;" />
      <stop
         style="stop-color:#692785;stop-opacity:1;"
         offset="0.16188201"
         id="stop4733" />
      <stop
         id="stop4735"
         offset="0.64201009"
         style="stop-color:#761328;stop-opacity:1;" />
      <stop
         id="stop4737"
         offset="1"
         style="stop-color:#000000;stop-opacity:1;" />
    </linearGradient>
    <linearGradient
       id="linearGradient4682">
      <stop
         style="stop-color:#94faff;stop-opacity:1;"
         offset="0"
         id="stop4684" />
      <stop
         id="stop4690"
         offset="0.11952271"
         style="stop-color:#692785;stop-opacity:1;" />
      <stop
         style="stop-color:#761328;stop-opacity:1;"
         offset="0.36377358"
         id="stop4692" />
      <stop
         style="stop-color:#000000;stop-opacity:1;"
         offset="1"
         id="stop4686" />
    </linearGradient>
    <radialGradient
       inkscape:collect="always"
       xlink:href="#linearGradient4729"
       id="radialGradient4727"
       gradientUnits="userSpaceOnUse"
       gradientTransform="matrix(0.71599557,0.00290244,-0.02535648,0.87195925,59.922866,48.747901)"
       cx="176.64362"
       cy="384.72614"
       fx="176.64362"
       fy="384.72614"
       r="315.42287" />
    <radialGradient
       inkscape:collect="always"
       xlink:href="#linearGradient4832"
       id="radialGradient4838"
       cx="177.20198"
       cy="739.88885"
       fx="177.20198"
       fy="739.88885"
       r="85"
       gradientTransform="matrix(0.96710165,-0.00535447,0.01106745,2.6630003,-2.6793481,-1235.1916)"
       gradientUnits="userSpaceOnUse" />
    <filter
       inkscape:collect="always"
       id="filter4162"
       x="-0.27490434"
       width="1.5498087"
       y="-0.12608753"
       height="1.2521751">
      <feGaussianBlur
         inkscape:collect="always"
         stdDeviation="6.6363627"
         id="feGaussianBlur4164" />
    </filter>
    <filter
       inkscape:collect="always"
       id="filter4186"
       x="-0.48147295"
       width="1.9629459"
       y="-0.56064102"
       height="2.121282">
      <feGaussianBlur
         inkscape:collect="always"
         stdDeviation="3.7792252"
         id="feGaussianBlur4188" />
    </filter>
    <filter
       inkscape:collect="always"
       id="filter4211"
       x="-0.2609674"
       width="1.5219348"
       y="-0.79102996"
       height="2.5820599">
      <feGaussianBlur
         inkscape:collect="always"
         stdDeviation="12.236245"
         id="feGaussianBlur4213" />
    </filter>
    <filter
       inkscape:collect="always"
       id="filter4855"
       x="-0.69223905"
       width="2.3844781"
       y="-0.20261939"
       height="1.4052388">
      <feGaussianBlur
         inkscape:collect="always"
         stdDeviation="49.0336"
         id="feGaussianBlur4857" />
    </filter>
    <filter
       inkscape:collect="always"
       id="filter4859">
      <feGaussianBlur
         inkscape:collect="always"
         stdDeviation="1.3136059"
         id="feGaussianBlur4861" />
    </filter>
  </defs>
  <sodipodi:namedview
     id="base"
     pagecolor="#ffffff"
     bordercolor="#666666"
     borderopacity="1.0"
     inkscape:pageopacity="0.0"
     inkscape:pageshadow="2"
     inkscape:zoom="1.2046154"
     inkscape:cx="-120.53001"
     inkscape:cy="386.70284"
     inkscape:document-units="px"
     inkscape:current-layer="layer2"
     showgrid="true"
     inkscape:window-width="1468"
     inkscape:window-height="1001"
     inkscape:window-x="2"
     inkscape:window-y="18"
     inkscape:window-maximized="0" />
  <metadata
     id="metadata4169">
    <rdf:RDF>
      <cc:Work
         rdf:about="">
        <dc:format>image/svg+xml</dc:format>
        <dc:type
           rdf:resource="http://purl.org/dc/dcmitype/StillImage" />
        <dc:title></dc:title>
      </cc:Work>
    </rdf:RDF>
  </metadata>
  <g
     inkscape:label="Glow"
     inkscape:groupmode="layer"
     id="layer1"
     transform="translate(0,-402.36217)"
     style="display:inline">
    <path
       style="fill:#00eeff;fill-opacity:1;stroke:none;filter:url(#filter4855)"
       d="m 175,444.12817 c -5.66667,0 -11.39931,85.74253 -25.84885,117.48154 C 124.14367,616.53967 90,640.5895 90,741.36217 c 0,128.11822 32.82311,134.89567 55.43478,178 17.98118,34.27729 14.78261,105.00003 29.56522,105.56253 l 0,-0.3438 c 14.78261,-0.5625 11.58404,-71.28519 29.56522,-105.56248 C 227.17689,875.91409 260,869.13664 260,741.01842 260,640.18331 225.7058,616.20504 200.68377,560.96299 186.33556,529.28594 180.66667,444.12817 175,444.12817 z"
       id="path4777"
       inkscape:connector-curvature="0"
       sodipodi:nodetypes="ssssccssss"
       transform="matrix(0.88235295,0,0,0.76446738,20.588235,98.840666)" />
  </g>
  <g
     inkscape:groupmode="layer"
     id="layer2"
     inkscape:label="Body"
     style="display:inline">
    <path
       transform="matrix(0.88235295,0,0,0.76446738,20.588235,-303.5215)"
       sodipodi:nodetypes="cssccssc"
       inkscape:connector-curvature="0"
       id="path3308"
       d="m 175,414.70592 c 0,199.65625 -85,167.65625 -85,326.65625 0,128.11822 32.82311,134.89567 55.43478,178 17.98118,34.27729 14.78261,105.00003 29.56522,105.56253 l 0,-0.3438 c 14.78261,-0.5625 11.58404,-71.28519 29.56522,-105.56248 C 227.17689,875.91409 260,869.13664 260,741.01842 260,582.36217 175.09926,613.97725 175,414.70592 z"
       style="fill:url(#radialGradient4838);fill-opacity:1;stroke:none;filter:url(#filter4859)" />
  </g>
  <g
     inkscape:groupmode="layer"
     id="layer3"
     inkscape:label="Highlights">
    <path
       style="fill:#92faff;fill-opacity:1;stroke:none;filter:url(#filter4211)"
       d="m 234.71875,336.4375 c -13.70032,14.54844 -34.54881,23.84375 -57.90625,23.84375 -21.57102,0 -40.98706,-7.9227 -54.625,-20.59375 10.68373,20.18451 31.51349,33.875 55.46875,33.875 25.21098,0 46.95933,-15.18811 57.0625,-37.125 z"
       id="path4192"
       inkscape:connector-curvature="0"
       transform="matrix(0.83112891,0,0,1,30.135573,0)" />
    <path
       style="fill:#ffffff;fill-opacity:1;stroke:none;display:inline;filter:url(#filter4162)"
       d="M 174.59375 145.78125 A 15.713374 13.61401 0 0 0 169.6875 146.59375 C 171.43317 147.89222 172.92793 149.39027 174.0625 151.09375 C 176.21698 154.34124 178.25092 157.4951 180 160 C 205.19414 196.08131 226.00768 205.08393 227.53125 272.09375 C 227.58461 269.1468 227.625 266.13335 227.625 262.96875 C 227.625 206.36437 212.12195 188.09517 193.15625 159.59375 C 191.88891 157.68921 190.40484 155.28165 188.84375 152.8125 A 15.713374 13.61401 0 0 0 174.59375 145.78125 z "
       id="path4128" />
    <path
       sodipodi:type="arc"
       style="opacity:0.64655175;fill:#ffffff;fill-opacity:1;stroke:none;filter:url(#filter4186)"
       id="path4168"
       sodipodi:cx="151.08557"
       sodipodi:cy="196.7433"
       sodipodi:rx="8.301405"
       sodipodi:ry="8.301405"
       d="m 159.38698,196.7433 a 8.301405,8.301405 0 1 1 -16.60281,0 8.301405,8.301405 0 1 1 16.60281,0 z"
       transform="matrix(0.49485092,0.60489419,-0.8786735,1.033566,228.02528,-89.693251)" />
  </g>
</svg>
