<?xml version="1.0" encoding="UTF-8" standalone="no"?>
<!-- Created with Inkscape (http://www.inkscape.org/) -->

<svg
   xmlns:dc="http://purl.org/dc/elements/1.1/"
   xmlns:cc="http://creativecommons.org/ns#"
   xmlns:rdf="http://www.w3.org/1999/02/22-rdf-syntax-ns#"
   xmlns:svg="http://www.w3.org/2000/svg"
   xmlns="http://www.w3.org/2000/svg"
   xmlns:xlink="http://www.w3.org/1999/xlink"
   xmlns:sodipodi="http://sodipodi.sourceforge.net/DTD/sodipodi-0.dtd"
   xmlns:inkscape="http://www.inkscape.org/namespaces/inkscape"
   width="350"
   height="650"
   id="svg4164"
   version="1.1"
   inkscape:version="0.48+devel r9730"
   sodipodi:docname="satan.svg"
   inkscape:export-filename="/Users/chaimleib/Documents/Programming/yesoidos/trunk/Yesoidos/game/satan.scheming.png"
   inkscape:export-xdpi="90"
   inkscape:export-ydpi="90">
  <defs
     id="defs4166">
    <linearGradient
       id="linearGradient4815">
      <stop
         id="stop4817"
         offset="0"
         style="stop-color:#000000;stop-opacity:1;" />
      <stop
         id="stop4819"
         offset="1"
         style="stop-color:#a522dd;stop-opacity:1;" />
    </linearGradient>
    <linearGradient
       id="linearGradient4797">
      <stop
         id="stop4799"
         offset="0"
         style="stop-color:#94faff;stop-opacity:1;" />
      <stop
         style="stop-color:#692785;stop-opacity:1;"
         offset="0.06989021"
         id="stop4801" />
      <stop
         id="stop4805"
         offset="1"
         style="stop-color:#000000;stop-opacity:1;" />
    </linearGradient>
    <linearGradient
       id="linearGradient4586">
      <stop
         style="stop-color:#000000;stop-opacity:1;"
         offset="0"
         id="stop4588" />
      <stop
         style="stop-color:#dd2222;stop-opacity:1;"
         offset="1"
         id="stop4590" />
    </linearGradient>
    <linearGradient
       inkscape:collect="always"
       id="linearGradient4549">
      <stop
         style="stop-color:#ffffff;stop-opacity:1;"
         offset="0"
         id="stop4551" />
      <stop
         style="stop-color:#ffffff;stop-opacity:0;"
         offset="1"
         id="stop4553" />
    </linearGradient>
    <linearGradient
       id="linearGradient4729">
      <stop
         id="stop4731"
         offset="0"
         style="stop-color:#000000;stop-opacity:0;" />
      <stop
         id="stop4735"
         offset="1"
         style="stop-color:#000000;stop-opacity:1;" />
    </linearGradient>
    <linearGradient
       id="linearGradient4682">
      <stop
         style="stop-color:#94faff;stop-opacity:1;"
         offset="0"
         id="stop4684" />
      <stop
         id="stop4690"
         offset="0.11952271"
         style="stop-color:#692785;stop-opacity:1;" />
      <stop
         style="stop-color:#761328;stop-opacity:1;"
         offset="0.36377358"
         id="stop4692" />
      <stop
         style="stop-color:#000000;stop-opacity:1;"
         offset="1"
         id="stop4686" />
    </linearGradient>
    <radialGradient
       inkscape:collect="always"
       xlink:href="#linearGradient4682"
       id="radialGradient4727"
       gradientUnits="userSpaceOnUse"
       gradientTransform="matrix(0.71599557,0.00290244,-0.02535648,0.87195925,59.922866,48.747901)"
       cx="176.64362"
       cy="384.72614"
       fx="176.64362"
       fy="384.72614"
       r="315.42288" />
    <filter
       inkscape:collect="always"
       id="filter4535">
      <feGaussianBlur
         inkscape:collect="always"
         stdDeviation="5.2163874"
         id="feGaussianBlur4537" />
    </filter>
    <linearGradient
       inkscape:collect="always"
       xlink:href="#linearGradient4549"
       id="linearGradient4555"
       x1="221.04655"
       y1="151.65251"
       x2="219.3174"
       y2="178.8448"
       gradientUnits="userSpaceOnUse" />
    <linearGradient
       inkscape:collect="always"
       xlink:href="#linearGradient4586"
       id="linearGradient4592"
       x1="189.89392"
       y1="581.90125"
       x2="187.745"
       y2="427.55518"
       gradientUnits="userSpaceOnUse" />
    <filter
       inkscape:collect="always"
       id="filter4606">
      <feGaussianBlur
         inkscape:collect="always"
         stdDeviation="12.867089"
         id="feGaussianBlur4608" />
    </filter>
    <filter
       inkscape:collect="always"
       id="filter4667"
       x="-0.61523671"
       width="2.2304734"
       y="-0.58105688"
       height="2.1621138">
      <feGaussianBlur
         inkscape:collect="always"
         stdDeviation="2.4074371"
         id="feGaussianBlur4669" />
    </filter>
    <filter
       inkscape:collect="always"
       id="filter4675"
       x="-0.10170227"
       width="1.2034045"
       y="-0.35019524"
       height="1.7003905">
      <feGaussianBlur
         inkscape:collect="always"
         stdDeviation="3.6615466"
         id="feGaussianBlur4677" />
    </filter>
    <linearGradient
       inkscape:collect="always"
       xlink:href="#linearGradient4729"
       id="linearGradient4683"
       x1="167.81386"
       y1="493.75446"
       x2="167.81386"
       y2="541.49652"
       gradientUnits="userSpaceOnUse" />
    <filter
       inkscape:collect="always"
       id="filter4703">
      <feGaussianBlur
         inkscape:collect="always"
         stdDeviation="17.682669"
         id="feGaussianBlur4705" />
    </filter>
    <filter
       inkscape:collect="always"
       id="filter4707"
       x="-0.078583978"
       width="1.157168"
       y="-0.14463296"
       height="1.2892659">
      <feGaussianBlur
         inkscape:collect="always"
         stdDeviation="2.4169192"
         id="feGaussianBlur4709" />
    </filter>
    <filter
       inkscape:collect="always"
       id="filter4746"
       x="-0.21090862"
       width="1.4218172"
       y="-0.25033079"
       height="1.5006616">
      <feGaussianBlur
         inkscape:collect="always"
         stdDeviation="12.330816"
         id="feGaussianBlur4748" />
    </filter>
    <filter
       inkscape:collect="always"
       id="filter4756"
       x="-0.30825314"
       width="1.6165063"
       y="-0.23148065"
       height="1.4629613">
      <feGaussianBlur
         inkscape:collect="always"
         stdDeviation="28.239328"
         id="feGaussianBlur4758" />
    </filter>
    <linearGradient
       inkscape:collect="always"
       xlink:href="#linearGradient4815"
       id="linearGradient4768"
       x1="166.83302"
       y1="493.11069"
       x2="171.25243"
       y2="39.015556"
       gradientUnits="userSpaceOnUse" />
    <filter
       inkscape:collect="always"
       id="filter4782"
       x="-0.2678618"
       width="1.5357236"
       y="-0.13324758"
       height="1.2664952">
      <feGaussianBlur
         inkscape:collect="always"
         stdDeviation="24.045797"
         id="feGaussianBlur4784" />
    </filter>
    <radialGradient
       inkscape:collect="always"
       xlink:href="#linearGradient4797"
       id="radialGradient4807"
       gradientUnits="userSpaceOnUse"
       gradientTransform="matrix(0.6845605,9.1801216e-4,-0.01762225,0.8360208,62.500114,62.924891)"
       cx="176.64362"
       cy="384.72614"
       fx="176.64362"
       fy="384.72614"
       r="315.42288" />
  </defs>
  <sodipodi:namedview
     id="base"
     pagecolor="#ffffff"
     bordercolor="#666666"
     borderopacity="1.0"
     inkscape:pageopacity="0.0"
     inkscape:pageshadow="2"
     inkscape:zoom="0.90509668"
     inkscape:cx="-184.75558"
     inkscape:cy="474.33751"
     inkscape:document-units="px"
     inkscape:current-layer="layer4"
     showgrid="false"
     inkscape:window-width="1671"
     inkscape:window-height="1011"
     inkscape:window-x="20"
     inkscape:window-y="0"
     inkscape:window-maximized="0" />
  <metadata
     id="metadata4169">
    <rdf:RDF>
      <cc:Work
         rdf:about="">
        <dc:format>image/svg+xml</dc:format>
        <dc:type
           rdf:resource="http://purl.org/dc/dcmitype/StillImage" />
        <dc:title></dc:title>
      </cc:Work>
    </rdf:RDF>
  </metadata>
  <g
     inkscape:groupmode="layer"
     id="layer4"
     inkscape:label="Shadow">
    <path
       sodipodi:nodetypes="cscscscscscscscscscscscscsc"
       inkscape:connector-curvature="0"
       id="path4685"
       d="m 454.48933,223.80662 c 0,0 -157.3312,87.77245 -137.31377,116.72541 12.32495,17.82666 195.02429,0.47579 195.02429,0.47579 0,0 -170.92715,39.34552 -173.80232,62.27467 -2.88705,23.02391 194.6646,113.63773 194.6646,113.63773 0,0 -195.35376,-61.52076 -216.73624,-43.93848 -18.97747,15.6047 184.17538,145.038 184.17538,145.038 0,0 -185.55297,-75.399 -215.56853,-64.81447 -20.93118,7.38107 9.49904,148.92023 9.49904,148.92023 0,0 -76.4103,-159.14298 -102.63255,-133.15744 -6.72471,6.66401 -68.82129,150.14851 -68.82129,150.14851 0,0 29.19041,-145.3079 15.46046,-158.86678 -21.12752,-20.86428 -156.578314,95.31343 -156.578314,95.31343 0,0 92.175654,-125.12438 83.139945,-137.3464 -11.636805,-15.74035 -158.651866,10.54666 -158.651866,10.54666 0,0 144.819349,-59.12011 141.770598,-105.97251 -1.65001,-25.35691 -189.374273,-53.22998 -189.374273,-53.22998 0,0 191.882837,9.79105 202.763365,-33.34873 6.258749,-24.81507 -225.597985,-92.67001 -225.597985,-92.67001 0,0 194.563611,25.42971 212.905951,14.31332 C 72.742144,243.355 -34.83375,110.85256 -34.83375,110.85256 c 0,0 177.82748,102.32118 190.47934,83.04758 6.15668,-9.37897 9.36197,-143.564413 9.36197,-143.564413 0,0 34.07883,141.723813 46.17158,142.718133 C 236.71999,195.15394 380.596,88.018037 380.596,88.018037 c 0,0 -135.64423,154.288973 -122.37595,169.169733 16.71744,18.7491 196.26928,-33.38115 196.26928,-33.38115 z"
       inkscape:transform-center-y="2.6617365"
       inkscape:transform-center-x="11.843034"
       style="opacity:0.90948277;fill:#000000;fill-opacity:1;stroke:none;display:inline;filter:url(#filter4703)"
       transform="matrix(0.44617874,0,0,0.68361685,93.327596,-7.10569)" />
    <path
       sodipodi:type="arc"
       style="opacity:0.39224137999999997;fill:url(#linearGradient4768);fill-opacity:1.0;stroke:none;filter:url(#filter4782)"
       id="path4760"
       sodipodi:cx="168.4903"
       sodipodi:cy="285.39807"
       sodipodi:rx="107.7233"
       sodipodi:ry="216.55145"
       d="m 276.21359,285.39807 a 107.7233,216.55145 0 1 1 -215.446592,0 107.7233,216.55145 0 1 1 215.446592,0 z"
       transform="matrix(1,0,0,0.90331666,7.7339804,5.4961512)"
       inkscape:export-filename="/Users/chaimleib/Documents/Programming/yesoidos/trunk/Yesoidos/game/path4760.png"
       inkscape:export-xdpi="90"
       inkscape:export-ydpi="90" />
  </g>
  <g
     inkscape:label="Back glow"
     inkscape:groupmode="layer"
     id="layer1"
     transform="translate(0,-402.36217)"
     style="display:none">
    <path
       transform="matrix(0.44617874,0,0,0.68361685,93.327596,395.25648)"
       style="fill:url(#linearGradient4592);fill-opacity:1;stroke:none;display:inline;filter:url(#filter4606)"
       inkscape:transform-center-x="11.843034"
       inkscape:transform-center-y="2.6617365"
       d="m 454.48933,223.80662 c 0,0 -157.3312,87.77245 -137.31377,116.72541 12.32495,17.82666 195.02429,0.47579 195.02429,0.47579 0,0 -170.92715,39.34552 -173.80232,62.27467 -2.88705,23.02391 194.6646,113.63773 194.6646,113.63773 0,0 -195.35376,-61.52076 -216.73624,-43.93848 -18.97747,15.6047 109.88759,161.19989 109.88759,161.19989 0,0 -111.26518,-91.56089 -141.28074,-80.97636 -20.93118,7.38107 9.49904,148.92023 9.49904,148.92023 0,0 -76.4103,-159.14298 -102.63255,-133.15744 -6.72471,6.66401 -68.82129,150.14851 -68.82129,150.14851 0,0 29.19041,-145.3079 15.46046,-158.86678 -21.12752,-20.86428 -156.578314,95.31343 -156.578314,95.31343 0,0 92.175654,-125.12438 83.139945,-137.3464 -11.636805,-15.74035 -158.651866,10.54666 -158.651866,10.54666 0,0 144.819349,-59.12011 141.770598,-105.97251 -1.65001,-25.35691 -186.898013,-75.85663 -186.898013,-75.85663 0,0 189.406577,32.4177 200.287105,-10.72208 6.258749,-24.81507 -225.597985,-92.67001 -225.597985,-92.67001 0,0 194.563611,25.42971 212.905951,14.31332 C 72.742144,243.355 -19.976193,91.458283 -19.976193,91.458283 c 0,0 162.969923,121.715457 175.621783,102.441857 6.15668,-9.37897 9.36197,-143.564413 9.36197,-143.564413 0,0 34.07883,141.723813 46.17158,142.718133 25.54085,2.10008 107.51037,-105.035823 107.51037,-105.035823 0,0 -73.73774,154.288973 -60.46946,169.169733 16.71744,18.7491 196.26928,-33.38115 196.26928,-33.38115 z"
       id="path4571"
       inkscape:connector-curvature="0"
       sodipodi:nodetypes="cscscscscscscscscscscscscsc" />
    <path
       transform="matrix(0.44617874,0,0,0.68361685,93.327596,395.25648)"
       style="fill:url(#radialGradient4727);fill-opacity:1;stroke:none;display:inline;filter:url(#filter4535)"
       inkscape:transform-center-x="11.843034"
       inkscape:transform-center-y="2.6617365"
       d="m 454.48933,223.80662 c 0,0 -157.3312,87.77245 -137.31377,116.72541 12.32495,17.82666 195.02429,0.47579 195.02429,0.47579 0,0 -170.92715,39.34552 -173.80232,62.27467 -2.88705,23.02391 194.6646,113.63773 194.6646,113.63773 0,0 -195.35376,-61.52076 -216.73624,-43.93848 -18.97747,15.6047 109.88759,161.19989 109.88759,161.19989 0,0 -111.26518,-91.56089 -141.28074,-80.97636 -20.93118,7.38107 9.49904,148.92023 9.49904,148.92023 0,0 -76.4103,-159.14298 -102.63255,-133.15744 -6.72471,6.66401 -68.82129,150.14851 -68.82129,150.14851 0,0 29.19041,-145.3079 15.46046,-158.86678 -21.12752,-20.86428 -156.578314,95.31343 -156.578314,95.31343 0,0 92.175654,-125.12438 83.139945,-137.3464 -11.636805,-15.74035 -158.651866,10.54666 -158.651866,10.54666 0,0 144.819349,-59.12011 141.770598,-105.97251 -1.65001,-25.35691 -186.898013,-75.85663 -186.898013,-75.85663 0,0 189.406577,32.4177 200.287105,-10.72208 6.258749,-24.81507 -225.597985,-92.67001 -225.597985,-92.67001 0,0 194.563611,25.42971 212.905951,14.31332 C 72.742144,243.355 -19.976193,91.458283 -19.976193,91.458283 c 0,0 162.969923,121.715457 175.621783,102.441857 6.15668,-9.37897 9.36197,-143.564413 9.36197,-143.564413 0,0 34.07883,141.723813 46.17158,142.718133 25.54085,2.10008 107.51037,-105.035823 107.51037,-105.035823 0,0 -73.73774,154.288973 -60.46946,169.169733 16.71744,18.7491 196.26928,-33.38115 196.26928,-33.38115 z"
       id="path4172"
       inkscape:connector-curvature="0"
       sodipodi:nodetypes="cscscscscscscscscscscscscsc" />
  </g>
  <g
     style="display:inline"
     transform="translate(0,-402.36217)"
     id="g4809"
     inkscape:groupmode="layer"
     inkscape:label="Back glow-scheming">
    <path
       sodipodi:nodetypes="cscscscscscscscscscscscscsc"
       inkscape:connector-curvature="0"
       id="path4811"
       d="m 454.48933,223.80662 c 0,0 -157.3312,87.77245 -137.31377,116.72541 12.32495,17.82666 195.02429,0.47579 195.02429,0.47579 0,0 -170.92715,39.34552 -173.80232,62.27467 -2.88705,23.02391 207.0459,94.24346 207.0459,94.24346 0,0 -207.73506,-42.12649 -229.11754,-24.54421 -18.97747,15.6047 179.22286,146.65418 179.22286,146.65418 0,0 -180.60045,-77.01518 -210.61601,-66.43065 -20.93118,7.38107 9.49904,148.92023 9.49904,148.92023 0,0 -76.4103,-159.14298 -102.63255,-133.15744 -6.72471,6.66401 -68.82129,150.14851 -68.82129,150.14851 0,0 29.19041,-145.3079 15.46046,-158.86678 -21.12752,-20.86428 -156.578314,95.31343 -156.578314,95.31343 0,0 92.175654,-125.12438 83.139945,-137.3464 -11.636805,-15.74035 -158.651866,10.54666 -158.651866,10.54666 0,0 144.819349,-59.12011 141.770598,-105.97251 -1.65001,-25.35691 -199.279313,-48.38141 -199.279313,-48.38141 0,0 201.787877,4.94248 212.668405,-38.1973 6.258749,-24.81507 -225.597985,-92.67001 -225.597985,-92.67001 0,0 194.563611,25.42971 212.905951,14.31332 C 72.742144,243.355 -27.404972,118.9335 -27.404972,118.9335 c 0,0 170.398702,94.24024 183.050562,74.96664 6.15668,-9.37897 9.36197,-143.564413 9.36197,-143.564413 0,0 34.07883,141.723813 46.17158,142.718133 25.54085,2.10008 164.46434,-103.419634 164.46434,-103.419634 0,0 -130.69171,152.672784 -117.42343,167.553544 16.71744,18.7491 196.26928,-33.38115 196.26928,-33.38115 z"
       inkscape:transform-center-y="2.6617365"
       inkscape:transform-center-x="11.843034"
       style="fill:url(#linearGradient4592);fill-opacity:1;stroke:none;display:inline;filter:url(#filter4606)"
       transform="matrix(0.44617874,0,0,0.68361685,93.327596,395.25648)" />
    <path
       sodipodi:nodetypes="cscscscscscscscscscscscscsc"
       inkscape:connector-curvature="0"
       id="path4813"
       d="m 454.48933,223.80662 c 0,0 -157.3312,87.77245 -137.31377,116.72541 12.32495,17.82666 195.02429,0.47579 195.02429,0.47579 0,0 -170.92715,39.34552 -173.80232,62.27467 -2.88705,23.02391 194.6646,86.16251 194.6646,86.16251 0,0 -195.35376,-34.04554 -216.73624,-16.46326 -18.97747,15.6047 186.65163,146.65418 186.65163,146.65418 0,0 -188.02922,-77.01518 -218.04478,-66.43065 -20.93118,7.38107 9.49904,148.92023 9.49904,148.92023 0,0 -76.4103,-159.14298 -102.63255,-133.15744 -6.72471,6.66401 -68.82129,150.14851 -68.82129,150.14851 0,0 29.19041,-145.3079 15.46046,-158.86678 -21.12752,-20.86428 -156.578314,95.31343 -156.578314,95.31343 0,0 92.175654,-125.12438 83.139945,-137.3464 -11.636805,-15.74035 -158.651866,10.54666 -158.651866,10.54666 0,0 144.819349,-59.12011 141.770598,-105.97251 -1.65001,-25.35691 -206.708093,-54.84617 -206.708093,-54.84617 0,0 209.216657,11.40724 220.097185,-31.73254 6.258749,-24.81507 -225.597985,-92.67001 -225.597985,-92.67001 0,0 194.563611,25.42971 212.905951,14.31332 23.926323,-14.50057 -66.315754,-130.84112 -66.315754,-130.84112 0,0 160.493663,86.15929 173.145523,66.88569 6.15668,-9.37897 9.36197,-143.564413 9.36197,-143.564413 0,0 34.07883,141.723813 46.17158,142.718133 25.54085,2.10008 161.98808,-95.338686 161.98808,-95.338686 0,0 -128.21545,144.591836 -114.94717,159.472596 16.71744,18.7491 196.26928,-33.38115 196.26928,-33.38115 z"
       inkscape:transform-center-y="2.6617365"
       inkscape:transform-center-x="11.843034"
       style="fill:url(#radialGradient4727);fill-opacity:1;stroke:none;display:inline;filter:url(#filter4535)"
       transform="matrix(0.44617874,0,0,0.68361685,93.327596,395.25648)" />
  </g>
  <g
     inkscape:groupmode="layer"
     id="layer3"
     inkscape:label="Body-Regular"
     style="display:none">
    <path
       sodipodi:nodetypes="cscscscscscscscscscscscscsc"
       inkscape:connector-curvature="0"
       id="path4639"
       d="m 454.48933,223.80662 c 0,0 -157.3312,87.77245 -137.31377,116.72541 12.32495,17.82666 195.02429,0.47579 195.02429,0.47579 0,0 -170.92715,39.34552 -173.80232,62.27467 -2.88705,23.02391 194.6646,113.63773 194.6646,113.63773 0,0 -195.35376,-61.52076 -216.73624,-43.93848 -18.97747,15.6047 109.88759,161.19989 109.88759,161.19989 0,0 -111.26518,-91.56089 -141.28074,-80.97636 -20.93118,7.38107 9.49904,148.92023 9.49904,148.92023 0,0 -76.4103,-159.14298 -102.63255,-133.15744 -6.72471,6.66401 -68.82129,150.14851 -68.82129,150.14851 0,0 29.19041,-145.3079 15.46046,-158.86678 -21.12752,-20.86428 -156.578314,95.31343 -156.578314,95.31343 0,0 92.175654,-125.12438 83.139945,-137.3464 -11.636805,-15.74035 -158.651866,10.54666 -158.651866,10.54666 0,0 144.819349,-59.12011 141.770598,-105.97251 -1.65001,-25.35691 -186.898013,-75.85663 -186.898013,-75.85663 0,0 189.406577,32.4177 200.287105,-10.72208 6.258749,-24.81507 -225.597985,-92.67001 -225.597985,-92.67001 0,0 194.563611,25.42971 212.905951,14.31332 C 72.742144,243.355 -19.976193,91.458283 -19.976193,91.458283 c 0,0 162.969923,121.715457 175.621783,102.441857 6.15668,-9.37897 9.36197,-143.564413 9.36197,-143.564413 0,0 34.07883,141.723813 46.17158,142.718133 25.54085,2.10008 107.51037,-105.035823 107.51037,-105.035823 0,0 -73.73774,154.288973 -60.46946,169.169733 16.71744,18.7491 196.26928,-33.38115 196.26928,-33.38115 z"
       inkscape:transform-center-y="2.6617365"
       inkscape:transform-center-x="11.843034"
       style="fill:url(#radialGradient4727);fill-opacity:1;stroke:none;display:inline"
       transform="matrix(0.44617874,0,0,0.68361685,93.327596,-7.10569)" />
  </g>
  <g
     inkscape:groupmode="layer"
     id="layer5"
     inkscape:label="Body-Scheming"
     style="display:inline">
    <path
       transform="matrix(0.44617874,0,0,0.68361685,93.327596,-7.10569)"
       style="fill:url(#radialGradient4807);fill-opacity:1;stroke:none;display:inline"
       inkscape:transform-center-x="11.843034"
       inkscape:transform-center-y="2.6617365"
       d="m 454.48933,223.80662 c 0,0 -157.3312,87.77245 -137.31377,116.72541 12.32495,17.82666 195.02429,0.47579 195.02429,0.47579 0,0 -170.92715,39.34552 -173.80232,62.27467 -2.88705,23.02391 197.14086,89.39489 197.14086,89.39489 0,0 -197.83002,-37.27792 -219.2125,-19.69564 -18.97747,15.6047 179.22286,145.038 179.22286,145.038 0,0 -180.60045,-75.399 -210.61601,-64.81447 -20.93118,7.38107 9.49904,148.92023 9.49904,148.92023 0,0 -76.4103,-159.14298 -102.63255,-133.15744 -6.72471,6.66401 -68.82129,150.14851 -68.82129,150.14851 0,0 29.19041,-145.3079 15.46046,-158.86678 -21.12752,-20.86428 -156.578314,95.31343 -156.578314,95.31343 0,0 92.175654,-125.12438 83.139945,-137.3464 -11.636805,-15.74035 -158.651866,10.54666 -158.651866,10.54666 0,0 144.819349,-59.12011 141.770598,-105.97251 -1.65001,-25.35691 -199.279313,-49.9976 -199.279313,-49.9976 0,0 201.787877,6.55867 212.668405,-36.58111 6.258749,-24.81507 -225.597985,-92.67001 -225.597985,-92.67001 0,0 194.563611,25.42971 212.905951,14.31332 C 72.742144,243.355 -12.547414,135.0954 -12.547414,135.0954 c 0,0 155.541144,78.07834 168.193004,58.80474 6.15668,-9.37897 9.36197,-143.564413 9.36197,-143.564413 0,0 34.07883,141.723813 46.17158,142.718133 25.54085,2.10008 157.03556,-88.87393 157.03556,-88.87393 0,0 -123.26293,138.12708 -109.99465,153.00784 16.71744,18.7491 196.26928,-33.38115 196.26928,-33.38115 z"
       id="path4794"
       inkscape:connector-curvature="0"
       sodipodi:nodetypes="cscscscscscscscscscscscscsc" />
  </g>
  <g
     inkscape:groupmode="layer"
     id="layer2"
     inkscape:label="Highlights"
     style="display:inline">
    <path
       sodipodi:type="arc"
       style="opacity:0.40517243;fill:#ffffff;fill-opacity:1;stroke:none;display:inline;filter:url(#filter4667)"
       id="path4641"
       sodipodi:cx="150.53641"
       sodipodi:cy="219.1068"
       sodipodi:rx="4.695631"
       sodipodi:ry="4.9718447"
       d="m 155.23204,219.1068 a 4.695631,4.9718447 0 1 1 -9.39126,0 4.695631,4.9718447 0 1 1 9.39126,0 z"
       transform="matrix(1.6838208,-0.75125131,0.58070137,1.3015578,-231.00418,28.23477)"
       inkscape:transform-center-x="-0.55242717"
       inkscape:transform-center-y="-2.2097087" />
    <path
       sodipodi:type="arc"
       style="opacity:0.62931064;fill:url(#linearGradient4555);fill-opacity:1;stroke:none;display:inline;filter:url(#filter4707)"
       id="path4547"
       sodipodi:cx="211.57961"
       sodipodi:cy="178.5034"
       sodipodi:rx="45.299026"
       sodipodi:ry="12.982038"
       d="m 256.87863,178.5034 a 45.299026,12.982038 0 1 1 -90.59805,0 45.299026,12.982038 0 1 1 90.59805,0 z"
       transform="matrix(0.58512518,0.56751254,-1.0760647,0.9298123,259.97289,-93.342216)" />
    <path
       style="opacity:0.37068966;fill:#000000;fill-opacity:1;stroke:none;display:inline;filter:url(#filter4675)"
       d="m 132.46875,344.28125 c 3.02247,14.19088 21.1994,25.09375 43.1875,25.09375 21.9881,0 40.19628,-10.90287 43.21875,-25.09375 -9.14555,8.6883 -25.09439,14.46875 -43.21875,14.46875 -18.12436,0 -34.04195,-5.78045 -43.1875,-14.46875 z"
       id="path4610"
       inkscape:connector-curvature="0" />
    <path
       transform="matrix(0.44617874,0,0,0.68361685,93.327596,-7.10569)"
       style="opacity:0.41379311;fill:url(#linearGradient4683);fill-opacity:1;stroke:none;display:inline"
       inkscape:transform-center-x="11.843034"
       inkscape:transform-center-y="2.6617365"
       d="m 454.48933,223.80662 c 0,0 -157.3312,87.77245 -137.31377,116.72541 12.32495,17.82666 195.02429,0.47579 195.02429,0.47579 0,0 -170.92715,39.34552 -173.80232,62.27467 -2.88705,23.02391 194.6646,92.62727 194.6646,92.62727 0,0 -195.35376,-40.5103 -216.73624,-22.92802 -18.97747,15.6047 176.7466,143.42181 176.7466,143.42181 0,0 -178.12419,-73.78281 -208.13975,-63.19828 -20.93118,7.38107 9.49904,148.92023 9.49904,148.92023 0,0 -76.4103,-159.14298 -102.63255,-133.15744 -6.72471,6.66401 -68.82129,150.14851 -68.82129,150.14851 0,0 29.19041,-145.3079 15.46046,-158.86678 -21.12752,-20.86428 -156.578314,95.31343 -156.578314,95.31343 0,0 92.175654,-125.12438 83.139945,-137.3464 -11.636805,-15.74035 -158.651866,10.54666 -158.651866,10.54666 0,0 144.819349,-59.12011 141.770598,-105.97251 -1.65001,-25.35691 -204.231833,-43.53284 -204.231833,-43.53284 0,0 206.740397,0.0939 217.620925,-43.04587 6.258749,-24.81507 -225.597985,-92.67001 -225.597985,-92.67001 0,0 194.563611,25.42971 212.905951,14.31332 C 72.742144,243.355 -2.6423764,135.0954 -2.6423764,135.0954 c 0,0 145.6361064,78.07834 158.2879664,58.80474 6.15668,-9.37897 9.36197,-143.564413 9.36197,-143.564413 0,0 34.07883,141.723813 46.17158,142.718133 25.54085,2.10008 157.03556,-93.722497 157.03556,-93.722497 0,0 -123.26293,142.975647 -109.99465,157.856407 16.71744,18.7491 196.26928,-33.38115 196.26928,-33.38115 z"
       id="path4679"
       inkscape:connector-curvature="0"
       sodipodi:nodetypes="cscscscscscscscscscscscscsc" />
  </g>
</svg>
